<svg xmlns="http://www.w3.org/2000/svg" viewBox="0 0 210 210">
  <rect width="200" height="200" rx="20" fill="#141413"/>
<path d="M160.557 100.789C160.557 111.394 158.564 120.593 154.58 128.386C150.596 136.179 145.41 142.566 139.023 147.546C132.578 152.527 125.342 156.248 117.314 158.709C109.287 161.17 100.996 162.4 92.4414 162.4H40.7617V156.16C42.4609 156.16 44.6582 156.013 47.3535 155.72C50.1074 155.369 51.9238 154.988 52.8027 154.578C54.5605 153.816 55.8203 152.703 56.582 151.238C57.4023 149.714 57.8125 147.898 57.8125 145.789V55.7887C57.8125 53.7965 57.4609 52.0094 56.7578 50.4273C56.1133 48.8453 54.7949 47.5855 52.8027 46.648C50.9863 45.7691 49.0234 45.1246 46.9141 44.7144C44.8047 44.3043 42.9883 44.0406 41.4648 43.9234V37.6832H95.957C103.457 37.6832 110.84 38.8551 118.105 41.1988C125.371 43.484 131.699 46.5894 137.09 50.5152C144.414 55.7301 150.156 62.5562 154.316 70.9937C158.477 79.4312 160.557 89.3629 160.557 100.789ZM139.023 100.701C139.023 92.3219 137.91 84.7633 135.684 78.025C133.457 71.2281 130.205 65.3102 125.928 60.2711C121.885 55.4664 116.904 51.6871 110.986 48.9332C105.127 46.1793 98.5938 44.8023 91.3867 44.8023C88.9844 44.8023 86.2598 44.8609 83.2129 44.9781C80.2246 45.0367 77.998 45.0953 76.5332 45.1539V141.043C76.5332 146.375 78.0859 150.066 81.1914 152.117C84.2969 154.168 89.0723 155.193 95.5176 155.193C102.959 155.193 109.463 153.875 115.029 151.238C120.596 148.601 125.107 144.939 128.564 140.252C132.197 135.33 134.834 129.646 136.475 123.201C138.174 116.697 139.023 109.197 139.023 100.701Z" fill="#F0EFEA"/>
</svg>